<svg xmlns="http://www.w3.org/2000/svg" width="1024" height="1024" viewBox="0 0 1024 1024">
<g>
<path d="M 530.50 843.98 C449.65,849.77 370.07,818.54 305.21,755.57 C242.69,694.87 206.48,618.25 200.03,533.00 C193.81,450.82 219.18,366.09 269.75,300.14 C323.99,229.39 401.97,185.91 489.00,177.90 C505.92,176.34 537.85,177.33 554.19,179.93 C611.76,189.06 662.74,212.53 706.51,250.04 C716.92,258.96 737.93,280.43 746.15,290.55 C789.11,343.44 815.37,408.29 822.06,478.00 C823.57,493.79 823.56,525.73 822.04,541.90 C810.10,668.62 729.90,779.28 617.62,823.97 C588.74,835.47 561.28,841.77 530.50,843.98 ZM 491.00 838.96 C513.27,841.10 548.58,838.35 574.09,832.48 C660.25,812.66 738.66,749.18 780.97,665.00 C801.63,623.90 813.38,581.63 817.09,535.00 C818.50,517.31 817.74,485.22 815.51,468.00 C807.10,403.27 782.00,344.11 742.12,295.00 C731.57,282.02 708.36,258.70 697.00,249.67 C652.31,214.15 604.90,193.34 550.50,185.34 C533.30,182.82 492.31,182.81 475.00,185.33 C411.19,194.64 354.14,222.47 307.61,267.00 C242.12,329.67 205.00,417.49 205.00,509.72 C205.00,603.11 244.72,692.78 314.65,757.27 C367.16,805.69 425.31,832.63 491.00,838.96 ZM 582.48 715.03 C581.63,716.41 579.02,716.23 578.49,714.75 C578.25,714.06 576.65,709.45 574.95,704.50 C571.07,693.24 562.67,675.55 555.81,664.19 C544.04,644.68 534.32,632.14 520.01,618.00 C499.44,597.67 478.30,585.09 443.77,572.60 L 431.03 568.00 L 295.17 568.00 L 291.49 561.42 C289.47,557.81 288.05,554.62 288.33,554.33 C288.62,554.05 293.04,553.00 298.17,552.00 C313.54,549.00 346.63,536.75 356.05,530.57 C361.86,526.76 368.97,523.41 378.19,520.16 C382.98,518.48 388.60,516.02 390.69,514.71 C392.79,513.39 399.45,509.79 405.50,506.69 C421.51,498.52 456.63,474.39 470.00,462.39 C480.41,453.06 484.95,452.06 492.74,457.41 C495.47,459.29 501.02,461.81 505.08,463.02 L 512.45 465.22 L 515.26 461.86 C519.81,456.42 522.75,444.50 521.54,436.44 C520.63,430.33 517.30,426.79 495.08,408.20 C469.50,386.83 463.46,380.52 457.25,368.69 C446.95,349.12 443.95,337.33 445.99,324.53 C447.26,316.62 448.77,313.37 453.74,307.86 C459.49,301.51 465.93,298.73 476.14,298.21 C489.21,297.54 493.61,299.33 503.00,309.13 L 510.50 316.96 L 512.74 313.51 C515.90,308.65 524.03,302.51 530.54,300.07 C541.96,295.80 558.01,298.22 565.64,305.38 C570.61,310.05 581.49,328.95 583.53,336.46 C587.46,351.00 583.79,361.68 571.01,372.86 C557.02,385.10 550.40,392.49 546.61,400.06 C544.62,404.02 543.00,408.11 543.00,409.13 C543.00,410.16 542.59,411.00 542.08,411.00 C540.59,411.00 533.00,401.86 532.36,399.28 C530.50,391.88 534.56,385.09 551.96,366.50 C568.00,349.38 571.50,342.79 571.50,329.72 C571.50,321.24 571.37,320.72 568.71,318.43 C562.23,312.85 549.81,311.79 540.28,316.00 C530.30,320.40 520.09,334.45 518.51,345.93 C517.69,351.89 515.71,352.63 513.66,347.75 C512.92,345.96 511.16,343.15 509.77,341.50 C507.64,338.98 507.18,337.26 506.85,330.64 C506.49,323.55 506.18,322.55 503.69,320.41 C496.69,314.39 480.24,313.33 471.67,318.35 C466.29,321.50 461.65,327.53 459.40,334.29 C457.29,340.65 457.81,358.90 460.24,363.50 C462.19,367.20 476.00,380.64 490.00,392.47 C495.77,397.35 504.85,405.73 510.17,411.09 C518.62,419.61 520.51,422.18 525.11,431.45 C530.04,441.37 530.41,442.63 530.81,450.88 L 531.23 459.71 L 535.18 457.80 C539.65,455.64 547.61,454.44 551.31,455.36 C553.98,456.03 565.99,465.75 580.50,478.96 C585.45,483.47 594.45,490.48 600.50,494.53 C606.55,498.59 614.06,503.64 617.19,505.76 C621.27,508.53 626.20,510.55 634.64,512.91 C647.71,516.57 653.45,519.01 662.87,524.93 C670.05,529.44 672.42,530.36 690.00,535.49 C696.88,537.50 706.32,540.93 711.00,543.12 C720.05,547.36 732.32,551.00 737.57,551.00 C739.32,551.00 741.37,551.74 742.13,552.65 C745.08,556.21 750.88,566.39 750.39,567.17 C750.11,567.63 718.03,568.00 679.10,568.00 L 608.33 568.00 L 606.59 574.25 C600.90,594.70 598.30,616.14 599.97,628.72 C602.41,647.07 613.32,666.65 626.39,676.16 L 630.28 678.99 L 626.89 680.39 C619.37,683.52 616.74,682.76 610.73,675.71 C601.18,664.52 592.94,648.93 590.51,637.47 C588.59,628.40 588.61,612.81 590.55,601.50 C592.26,591.58 595.58,574.54 596.58,570.55 C597.15,568.26 596.92,568.00 594.36,568.01 C591.66,568.01 591.04,568.95 582.98,585.26 C575.11,601.16 574.26,602.48 571.98,602.19 C567.67,601.66 560.15,598.99 536.00,589.43 C514.26,580.82 503.68,577.31 479.21,570.56 C469.83,567.98 457.65,566.94 463.00,569.18 C474.19,573.87 495.20,585.20 503.00,590.74 C515.17,599.40 533.62,617.69 543.14,630.54 C558.53,651.30 572.31,678.97 580.39,705.28 C581.87,710.11 582.81,714.49 582.48,715.03 ZM 296.39 560.47 L 298.05 563.00 L 519.86 563.00 C641.85,563.00 741.95,562.71 742.30,562.36 C742.65,562.01 741.97,560.32 740.79,558.61 C739.61,556.90 738.58,555.39 738.50,555.26 C738.42,555.13 734.57,554.32 729.93,553.45 C724.88,552.50 716.48,549.72 709.00,546.53 C702.12,543.59 693.24,540.25 689.25,539.09 C685.26,537.94 678.96,536.11 675.25,535.03 C671.54,533.95 665.35,531.20 661.50,528.93 C649.81,522.04 645.63,520.19 634.34,516.89 C622.17,513.33 615.60,510.33 609.00,505.31 C606.53,503.43 600.45,499.26 595.50,496.04 C590.55,492.83 581.33,485.36 575.00,479.46 C568.67,473.56 560.62,466.54 557.10,463.86 C551.47,459.58 550.12,459.00 545.82,459.00 C539.79,459.00 535.12,460.88 529.76,465.47 C525.91,468.77 525.18,469.00 518.78,469.00 L 511.93 469.00 L 514.43 472.69 C515.81,474.72 517.43,478.88 518.03,481.94 C520.67,495.37 527.05,513.49 531.60,520.50 C532.32,521.60 539.05,528.12 546.55,535.00 C554.06,541.88 561.12,548.79 562.25,550.37 L 564.30 553.23 L 562.21 552.11 C561.05,551.49 559.84,550.54 559.50,550.00 C559.17,549.46 555.20,545.81 550.70,541.88 C530.90,524.66 529.68,523.15 524.20,509.18 C519.38,496.90 517.82,491.44 516.43,482.00 C515.66,476.79 514.02,473.23 511.23,470.71 C509.35,469.01 508.96,469.00 503.13,470.62 C498.46,471.92 495.77,473.48 491.81,477.18 C486.83,481.83 484.24,483.00 475.81,484.44 C473.79,484.78 469.93,486.58 467.25,488.42 C464.56,490.27 459.92,493.01 456.93,494.51 C453.95,496.01 448.44,499.26 444.70,501.73 C440.95,504.20 437.72,506.05 437.51,505.84 C437.29,505.63 440.81,503.05 445.31,500.11 C469.19,484.54 472.27,482.78 476.35,482.33 C483.77,481.52 484.82,481.05 490.56,476.04 C493.67,473.31 497.85,470.58 499.86,469.97 C501.86,469.35 504.17,468.62 505.00,468.34 C505.87,468.04 503.97,466.90 500.50,465.62 C497.20,464.41 492.71,462.20 490.52,460.71 C483.87,456.19 483.56,456.31 466.34,470.32 C460.38,475.17 447.52,484.62 437.76,491.32 C422.41,501.86 414.34,506.60 390.00,519.39 C387.52,520.69 382.25,522.92 378.28,524.34 C370.59,527.10 362.85,530.81 356.84,534.60 C348.33,539.97 321.16,550.44 305.14,554.51 C299.99,555.82 295.54,557.13 295.25,557.42 C294.96,557.70 295.48,559.08 296.39,560.47 ZM 561.50 589.08 C564.80,590.06 569.41,590.89 571.74,590.93 C575.66,590.99 576.17,590.69 578.66,586.75 C580.13,584.41 582.83,579.24 584.65,575.25 L 587.95 568.00 L 546.81 568.00 C524.18,568.00 505.86,568.20 506.11,568.44 C506.35,568.68 513.29,571.34 521.52,574.36 C529.76,577.37 540.78,581.52 546.00,583.57 C551.22,585.62 558.20,588.10 561.50,589.08 ZM 538.77 403.24 C540.18,404.85 540.45,404.63 542.50,400.24 C546.11,392.52 552.19,385.33 564.31,374.44 C570.59,368.80 576.65,362.68 577.79,360.84 C581.37,355.03 582.46,348.63 581.11,341.30 C579.87,334.56 577.24,327.00 576.14,327.00 C575.79,327.00 575.39,329.44 575.27,332.42 C574.76,344.08 568.88,353.97 551.91,371.64 C534.06,390.23 531.92,395.38 538.77,403.24 ZM 452.63 353.25 C453.68,356.87 454.69,354.81 454.23,349.99 C453.17,339.06 458.71,323.75 465.62,318.47 C474.44,311.75 486.65,310.05 497.99,313.96 C501.01,315.00 503.57,315.76 503.69,315.64 C503.81,315.52 502.04,313.25 499.76,310.58 C492.20,301.73 480.78,298.80 468.33,302.50 C462.43,304.25 454.78,310.56 452.04,315.93 C447.34,325.14 447.50,335.59 452.63,353.25 ZM 512.53 338.45 C514.30,343.06 516.00,344.44 516.00,341.25 C516.00,337.91 521.73,327.47 526.42,322.28 C529.47,318.90 533.48,315.90 537.79,313.78 C543.53,310.96 545.50,310.50 551.98,310.50 C556.11,310.50 561.30,310.90 563.50,311.38 L 567.50 312.27 L 565.20 309.76 C563.93,308.39 560.56,305.97 557.70,304.38 C553.05,301.80 551.55,301.50 543.50,301.51 C532.52,301.51 527.53,303.49 519.60,310.99 C510.26,319.83 508.31,327.40 512.53,338.45 ZM 372.29 553.86 C365.48,557.32 365.01,556.30 371.50,552.12 C376.57,548.86 385.37,541.00 383.95,541.00 C383.70,541.00 374.39,544.06 363.25,547.79 C352.11,551.53 343.00,554.42 343.00,554.23 C343.00,553.47 355.84,548.11 361.52,546.49 C375.93,542.38 387.86,537.66 393.13,533.98 C398.93,529.92 404.00,527.50 404.00,528.78 C404.00,529.18 401.88,530.63 399.28,532.00 C396.69,533.38 390.50,538.38 385.53,543.11 C380.56,547.85 374.61,552.69 372.29,553.86 ZM 616.26 554.41 C615.93,554.73 614.95,554.94 614.08,554.87 C611.76,554.68 584.49,540.75 581.95,538.46 C577.87,534.78 567.49,522.58 569.79,524.16 C571.04,525.03 574.57,528.50 577.62,531.87 C582.56,537.33 584.85,538.83 598.30,545.45 C606.62,549.55 613.56,552.77 613.73,552.60 C613.89,552.44 613.35,550.68 612.51,548.69 C608.98,540.23 611.87,539.82 620.05,547.63 C623.30,550.73 625.69,553.70 625.36,554.23 C625.03,554.76 622.66,553.12 620.10,550.60 C617.53,548.07 615.13,546.00 614.76,546.00 C614.39,546.00 614.71,547.76 615.47,549.91 C616.23,552.06 616.58,554.08 616.26,554.41 ZM 517.17 465.25 C516.99,465.66 518.41,466.00 520.34,466.00 C525.73,466.00 528.00,462.47 527.99,454.12 C527.99,450.48 527.47,445.70 526.84,443.50 L 525.70 439.50 L 524.48 446.52 C523.82,450.38 521.97,456.00 520.39,459.02 C518.81,462.03 517.36,464.84 517.17,465.25 ZM 493.50 402.60 C503.95,411.59 512.61,418.95 512.75,418.97 C512.89,418.99 513.00,418.59 513.00,418.08 C513.00,416.63 469.23,377.92 466.69,377.13 C464.13,376.33 475.36,387.00 493.50,402.60 ZM 488.65 528.32 C486.75,529.77 483.30,533.77 480.98,537.23 C478.65,540.68 477.09,542.38 477.50,541.00 C478.91,536.29 480.99,533.13 486.68,526.97 L 492.39 520.82 L 493.04 510.66 C493.67,500.82 495.99,493.36 499.01,491.50 C499.58,491.14 499.02,492.80 497.77,495.18 C495.95,498.65 495.40,501.66 495.00,510.50 C494.44,522.54 493.77,524.41 488.65,528.32 ZM 667.00 554.66 C667.00,555.54 664.96,554.68 658.32,550.99 C653.24,548.18 649.16,546.73 644.34,546.05 C638.53,545.23 636.44,544.32 630.02,539.82 C625.88,536.92 619.35,532.87 615.50,530.80 C611.65,528.74 608.88,527.04 609.35,527.03 C611.19,526.97 626.81,535.17 632.17,539.01 C636.58,542.17 639.51,543.39 645.42,544.52 C650.78,545.54 655.06,547.19 660.00,550.14 C663.85,552.44 667.00,554.47 667.00,554.66 ZM 598.00 509.63 C598.00,510.42 595.11,509.72 585.50,506.59 C573.69,502.74 566.42,499.21 559.29,493.89 C556.43,491.75 553.62,490.00 553.04,490.00 C552.47,490.00 552.00,489.55 552.00,489.00 C552.00,486.96 554.75,488.14 562.32,493.40 C569.58,498.46 576.70,501.76 591.75,507.07 C595.19,508.28 598.00,509.43 598.00,509.63 ZM 437.80 526.34 C431.21,530.45 417.00,536.71 417.00,535.50 C417.00,535.24 420.71,533.16 425.25,530.89 C437.16,524.91 445.43,519.25 454.29,511.00 C458.58,507.02 462.30,503.97 462.57,504.24 C463.57,505.24 444.84,521.96 437.80,526.34 ZM 680.50 549.02 C690.02,553.61 689.40,554.19 679.50,549.94 C675.65,548.29 666.20,544.91 658.50,542.42 C650.80,539.94 642.92,537.01 641.00,535.91 C639.08,534.81 638.17,534.12 639.00,534.37 C656.27,539.65 674.21,545.98 680.50,549.02 ZM 463.93 536.15 C459.59,540.91 454.12,546.27 451.77,548.07 C448.19,550.81 448.57,550.21 454.08,544.42 C457.71,540.61 464.85,532.66 469.95,526.75 C475.06,520.84 479.44,516.00 479.68,516.00 C480.98,516.00 473.08,526.11 463.93,536.15 ZM 523.52 542.71 C523.82,544.79 523.64,547.85 523.12,549.50 C522.24,552.30 522.16,552.16 522.05,547.50 C521.99,544.75 521.06,540.03 520.00,537.00 C518.94,533.97 518.06,529.92 518.06,528.00 C518.05,525.01 518.41,525.56 520.51,531.71 C521.86,535.67 523.21,540.62 523.52,542.71 ZM 425.50 542.99 C423.30,544.06 420.38,545.68 419.00,546.58 C417.62,547.48 418.25,546.60 420.40,544.62 C422.72,542.48 425.74,540.79 427.90,540.43 C434.82,539.28 437.99,537.83 440.43,534.71 C441.79,532.98 443.21,531.87 443.59,532.26 C443.97,532.64 442.47,534.76 440.26,536.98 C437.17,540.06 435.45,541.01 432.87,541.02 C431.02,541.03 427.70,541.92 425.50,542.99 Z" fill="rgb(12,10,10)"/>
<path d="M 452.63 353.25 C451.77,350.28 451.04,347.51 450.46,344.92 C450.97,346.80 451.59,348.66 452.32,350.50 L 453.50 353.50 L 453.75 349.00 C454.30,338.85 456.57,330.69 460.44,324.64 C456.21,331.67 453.46,342.00 454.23,349.99 C454.69,354.81 453.68,356.87 452.63,353.25 ZM 466.93 317.53 C470.48,314.85 474.72,313.13 479.61,312.42 C475.04,313.23 470.71,314.95 466.93,317.53 ZM 448.64 330.79 C448.64,325.10 449.77,320.37 452.04,315.93 C449.88,320.15 448.75,325.28 448.64,330.79 Z" fill="rgb(99,99,99)"/>
<path d="M 558.00 931.54 C541.94,933.77 492.89,934.36 475.50,932.53 C440.48,928.85 404.17,920.06 372.00,907.50 C356.93,901.61 327.37,886.95 311.50,877.48 C254.25,843.35 201.59,791.88 167.78,737.00 C130.93,677.19 109.47,611.53 103.93,541.73 C102.38,522.20 103.23,474.93 105.46,457.00 C114.13,387.08 137.97,322.56 176.08,265.88 C204.31,223.90 245.85,182.21 287.50,154.06 C339.84,118.68 395.65,98.23 467.00,88.29 C485.11,85.77 536.86,85.80 556.50,88.34 C623.61,97.03 684.81,119.11 734.00,152.37 C839.28,223.55 905.20,337.17 917.13,468.00 C918.91,487.54 918.66,531.05 916.66,550.50 C907.54,639.28 873.94,719.30 817.14,787.50 C805.17,801.87 772.69,833.66 758.00,845.39 C698.69,892.74 632.71,921.16 558.00,931.54 ZM 497.50 920.33 C510.75,920.97 514.17,920.93 531.00,919.96 C627.77,914.40 716.75,873.28 786.51,801.88 C853.66,733.15 894.04,646.39 903.53,550.46 C905.62,529.27 905.13,482.53 902.61,462.78 C890.15,365.15 847.37,278.31 779.86,213.59 C715.93,152.31 638.28,116.91 549.05,108.37 C525.93,106.15 482.70,106.92 461.08,109.93 C428.79,114.43 398.72,122.22 366.50,134.45 C354.18,139.13 319.91,156.52 306.98,164.66 C242.82,205.04 189.37,265.70 156.45,335.50 C128.01,395.77 114.57,458.80 116.33,523.50 C117.01,548.44 117.98,558.93 121.65,581.00 C135.31,663.15 175.35,739.87 237.00,802.03 C290.07,855.54 353.91,892.38 423.05,909.41 C447.09,915.33 473.25,919.17 497.50,920.33 ZM 296.39 560.47 C295.48,559.08 294.96,557.70 295.25,557.42 C295.54,557.13 299.99,555.82 305.14,554.51 C321.16,550.44 348.33,539.97 356.84,534.60 C362.85,530.81 370.59,527.10 378.28,524.34 C382.25,522.92 387.52,520.69 390.00,519.39 C414.34,506.60 422.41,501.86 437.76,491.32 C447.52,484.62 460.38,475.17 466.34,470.32 C483.56,456.31 483.87,456.19 490.52,460.71 C492.71,462.20 497.20,464.41 500.50,465.62 C503.97,466.90 505.87,468.04 505.00,468.34 C504.17,468.62 501.86,469.35 499.86,469.97 C497.85,470.58 493.67,473.31 490.56,476.04 C484.82,481.05 483.77,481.52 476.35,482.33 C472.27,482.78 469.19,484.54 445.31,500.11 C440.81,503.05 437.29,505.63 437.51,505.84 C437.72,506.05 440.95,504.20 444.70,501.73 C448.44,499.26 453.95,496.01 456.93,494.51 C459.92,493.01 464.56,490.27 467.25,488.42 C469.93,486.58 473.79,484.78 475.81,484.44 C484.24,483.00 486.83,481.83 491.81,477.18 C495.77,473.48 498.46,471.92 503.13,470.62 C508.96,469.00 509.35,469.01 511.23,470.71 C514.02,473.23 515.66,476.79 516.43,482.00 C517.82,491.44 519.38,496.90 524.20,509.18 C529.68,523.15 530.90,524.66 550.70,541.88 C555.20,545.81 559.17,549.46 559.50,550.00 C559.84,550.54 561.05,551.49 562.21,552.11 L 564.30 553.23 L 562.25 550.37 C561.12,548.79 554.06,541.88 546.55,535.00 C539.05,528.12 532.32,521.60 531.60,520.50 C527.05,513.49 520.67,495.37 518.03,481.94 C517.43,478.88 515.81,474.72 514.43,472.69 L 511.93 469.00 L 518.78 469.00 C525.18,469.00 525.91,468.77 529.76,465.47 C535.12,460.88 539.79,459.00 545.82,459.00 C550.12,459.00 551.47,459.58 557.10,463.86 C560.62,466.54 568.67,473.56 575.00,479.46 C581.33,485.36 590.55,492.83 595.50,496.04 C600.45,499.26 606.53,503.43 609.00,505.31 C615.60,510.33 622.17,513.33 634.34,516.89 C645.63,520.19 649.81,522.04 661.50,528.93 C665.35,531.20 671.54,533.95 675.25,535.03 C678.96,536.11 685.26,537.94 689.25,539.09 C693.24,540.25 702.12,543.59 709.00,546.53 C716.48,549.72 724.88,552.50 729.93,553.45 C734.57,554.32 738.42,555.13 738.50,555.26 C738.58,555.39 739.61,556.90 740.79,558.61 C741.97,560.32 742.65,562.01 742.30,562.36 C741.95,562.71 641.85,563.00 519.86,563.00 L 298.05 563.00 ZM 372.29 553.86 C374.61,552.69 380.56,547.85 385.53,543.11 C390.50,538.38 396.69,533.38 399.28,532.00 C401.88,530.63 404.00,529.18 404.00,528.78 C404.00,527.50 398.93,529.92 393.13,533.98 C387.86,537.66 375.93,542.38 361.52,546.49 C355.84,548.11 343.00,553.47 343.00,554.23 C343.00,554.42 352.11,551.53 363.25,547.79 C374.39,544.06 383.70,541.00 383.95,541.00 C385.37,541.00 376.57,548.86 371.50,552.12 C365.01,556.30 365.48,557.32 372.29,553.86 ZM 616.26 554.41 C616.58,554.08 616.23,552.06 615.47,549.91 C614.71,547.76 614.39,546.00 614.76,546.00 C615.13,546.00 617.53,548.07 620.10,550.60 C622.66,553.12 625.03,554.76 625.36,554.23 C625.69,553.70 623.30,550.73 620.05,547.63 C611.87,539.82 608.98,540.23 612.51,548.69 C613.35,550.68 613.89,552.44 613.73,552.60 C613.56,552.77 606.62,549.55 598.30,545.45 C584.85,538.83 582.56,537.33 577.62,531.87 C574.57,528.50 571.04,525.03 569.79,524.16 C567.49,522.58 577.87,534.78 581.95,538.46 C584.49,540.75 611.76,554.68 614.08,554.87 C614.95,554.94 615.93,554.73 616.26,554.41 ZM 488.65 528.32 C493.77,524.41 494.44,522.54 495.00,510.50 C495.40,501.66 495.95,498.65 497.77,495.18 C499.02,492.80 499.58,491.14 499.01,491.50 C495.99,493.36 493.67,500.82 493.04,510.66 L 492.39 520.82 L 486.68 526.97 C480.99,533.13 478.91,536.29 477.50,541.00 C477.09,542.38 478.65,540.68 480.98,537.23 C483.30,533.77 486.75,529.77 488.65,528.32 ZM 667.00 554.66 C667.00,554.47 663.85,552.44 660.00,550.14 C655.06,547.19 650.78,545.54 645.42,544.52 C639.51,543.39 636.58,542.17 632.17,539.01 C626.81,535.17 611.19,526.97 609.35,527.03 C608.88,527.04 611.65,528.74 615.50,530.80 C619.35,532.87 625.88,536.92 630.02,539.82 C636.44,544.32 638.53,545.23 644.34,546.05 C649.16,546.73 653.24,548.18 658.32,550.99 C664.96,554.68 667.00,555.54 667.00,554.66 ZM 598.00 509.63 C598.00,509.43 595.19,508.28 591.75,507.07 C576.70,501.76 569.58,498.46 562.32,493.40 C554.75,488.14 552.00,486.96 552.00,489.00 C552.00,489.55 552.47,490.00 553.04,490.00 C553.62,490.00 556.43,491.75 559.29,493.89 C566.42,499.21 573.69,502.74 585.50,506.59 C595.11,509.72 598.00,510.42 598.00,509.63 ZM 437.80 526.34 C444.84,521.96 463.57,505.24 462.57,504.24 C462.30,503.97 458.58,507.02 454.29,511.00 C445.43,519.25 437.16,524.91 425.25,530.89 C420.71,533.16 417.00,535.24 417.00,535.50 C417.00,536.71 431.21,530.45 437.80,526.34 ZM 680.50 549.02 C674.21,545.98 656.27,539.65 639.00,534.37 C638.17,534.12 639.08,534.81 641.00,535.91 C642.92,537.01 650.80,539.94 658.50,542.42 C666.20,544.91 675.65,548.29 679.50,549.94 C689.40,554.19 690.02,553.61 680.50,549.02 ZM 463.93 536.15 C473.08,526.11 480.98,516.00 479.68,516.00 C479.44,516.00 475.06,520.84 469.95,526.75 C464.85,532.66 457.71,540.61 454.08,544.42 C448.57,550.21 448.19,550.81 451.77,548.07 C454.12,546.27 459.59,540.91 463.93,536.15 ZM 523.52 542.71 C523.21,540.62 521.86,535.67 520.51,531.71 C518.41,525.56 518.05,525.01 518.06,528.00 C518.06,529.92 518.94,533.97 520.00,537.00 C521.06,540.03 521.99,544.75 522.05,547.50 C522.16,552.16 522.24,552.30 523.12,549.50 C523.64,547.85 523.82,544.79 523.52,542.71 ZM 425.50 542.99 C427.70,541.92 431.02,541.03 432.87,541.02 C435.45,541.01 437.17,540.06 440.26,536.98 C442.47,534.76 443.97,532.64 443.59,532.26 C443.21,531.87 441.79,532.98 440.43,534.71 C437.99,537.83 434.82,539.28 427.90,540.43 C425.74,540.79 422.72,542.48 420.40,544.62 C418.25,546.60 417.62,547.48 419.00,546.58 C420.38,545.68 423.30,544.06 425.50,542.99 Z" fill="rgb(173,97,44)"/>
<path d="M 0.00 512.00 L 0.00 0.00 L 512.00 0.00 L 1024.00 0.00 L 1024.00 512.00 L 1024.00 1024.00 L 512.00 1024.00 L 0.00 1024.00 L 0.00 512.00 ZM 558.00 931.54 C632.71,921.16 698.69,892.74 758.00,845.39 C772.69,833.66 805.17,801.87 817.14,787.50 C873.94,719.30 907.54,639.28 916.66,550.50 C918.66,531.05 918.91,487.54 917.13,468.00 C905.20,337.17 839.28,223.55 734.00,152.37 C684.81,119.11 623.61,97.03 556.50,88.34 C536.86,85.80 485.11,85.77 467.00,88.29 C395.65,98.23 339.84,118.68 287.50,154.06 C245.85,182.21 204.31,223.90 176.08,265.88 C137.97,322.56 114.13,387.08 105.46,457.00 C103.23,474.93 102.38,522.20 103.93,541.73 C109.47,611.53 130.93,677.19 167.78,737.00 C201.59,791.88 254.25,843.35 311.50,877.48 C327.37,886.95 356.93,901.61 372.00,907.50 C404.17,920.06 440.48,928.85 475.50,932.53 C492.89,934.36 541.94,933.77 558.00,931.54 ZM 497.50 920.33 C473.25,919.17 447.09,915.33 423.05,909.41 C353.91,892.38 290.07,855.54 237.00,802.03 C175.35,739.87 135.31,663.15 121.65,581.00 C117.98,558.93 117.01,548.44 116.33,523.50 C114.57,458.80 128.01,395.77 156.45,335.50 C189.37,265.70 242.82,205.04 306.98,164.66 C319.91,156.52 354.18,139.13 366.50,134.45 C398.72,122.22 428.79,114.43 461.08,109.93 C482.70,106.92 525.93,106.15 549.05,108.37 C638.28,116.91 715.93,152.31 779.86,213.59 C847.37,278.31 890.15,365.15 902.61,462.78 C905.13,482.53 905.62,529.27 903.53,550.46 C894.04,646.39 853.66,733.15 786.51,801.88 C716.75,873.28 627.77,914.40 531.00,919.96 C514.17,920.93 510.75,920.97 497.50,920.33 ZM 530.50 843.98 C561.28,841.77 588.74,835.47 617.62,823.97 C729.90,779.28 810.10,668.62 822.04,541.90 C823.56,525.73 823.57,493.79 822.06,478.00 C815.37,408.29 789.11,343.44 746.15,290.55 C737.93,280.43 716.92,258.96 706.51,250.04 C662.74,212.53 611.76,189.06 554.19,179.93 C537.85,177.33 505.92,176.34 489.00,177.90 C401.97,185.91 323.99,229.39 269.75,300.14 C219.18,366.09 193.81,450.82 200.03,533.00 C206.48,618.25 242.69,694.87 305.21,755.57 C370.07,818.54 449.65,849.77 530.50,843.98 ZM 491.00 838.96 C425.31,832.63 367.16,805.69 314.65,757.27 C244.72,692.78 205.00,603.11 205.00,509.72 C205.00,417.49 242.12,329.67 307.61,267.00 C354.14,222.47 411.19,194.64 475.00,185.33 C492.31,182.81 533.30,182.82 550.50,185.34 C604.90,193.34 652.31,214.15 697.00,249.67 C708.36,258.70 731.57,282.02 742.12,295.00 C782.00,344.11 807.10,403.27 815.51,468.00 C817.74,485.22 818.50,517.31 817.09,535.00 C813.38,581.63 801.63,623.90 780.97,665.00 C738.66,749.18 660.25,812.66 574.09,832.48 C548.58,838.35 513.27,841.10 491.00,838.96 ZM 582.48 715.03 C582.81,714.49 581.87,710.11 580.39,705.28 C572.31,678.97 558.53,651.30 543.14,630.54 C533.62,617.69 515.17,599.40 503.00,590.74 C495.20,585.20 474.19,573.87 463.00,569.18 C457.65,566.94 469.83,567.98 479.21,570.56 C503.68,577.31 514.26,580.82 536.00,589.43 C560.15,598.99 567.67,601.66 571.98,602.19 C574.26,602.48 575.11,601.16 582.98,585.26 C591.04,568.95 591.66,568.01 594.36,568.01 C596.92,568.00 597.15,568.26 596.58,570.55 C595.58,574.54 592.26,591.58 590.55,601.50 C588.61,612.81 588.59,628.40 590.51,637.47 C592.94,648.93 601.18,664.52 610.73,675.71 C616.74,682.76 619.37,683.52 626.89,680.39 L 630.28 678.99 L 626.39 676.16 C613.32,666.65 602.41,647.07 599.97,628.72 C598.30,616.14 600.90,594.70 606.59,574.25 L 608.33 568.00 L 679.10 568.00 C718.03,568.00 750.11,567.63 750.39,567.17 C750.88,566.39 745.08,556.21 742.13,552.65 C741.37,551.74 739.32,551.00 737.57,551.00 C732.32,551.00 720.05,547.36 711.00,543.12 C706.32,540.93 696.88,537.50 690.00,535.49 C672.42,530.36 670.05,529.44 662.87,524.93 C653.45,519.01 647.71,516.57 634.64,512.91 C626.20,510.55 621.27,508.53 617.19,505.76 C614.06,503.64 606.55,498.59 600.50,494.53 C594.45,490.48 585.45,483.47 580.50,478.96 C565.99,465.75 553.98,456.03 551.31,455.36 C547.61,454.44 539.65,455.64 535.18,457.80 L 531.23 459.71 L 530.81 450.88 C530.41,442.63 530.04,441.37 525.11,431.45 C520.51,422.18 518.62,419.61 510.17,411.09 C504.85,405.73 495.77,397.35 490.00,392.47 C476.00,380.64 462.19,367.20 460.24,363.50 C457.81,358.90 457.29,340.65 459.40,334.29 C461.65,327.53 466.29,321.50 471.67,318.35 C480.24,313.33 496.69,314.39 503.69,320.41 C506.18,322.55 506.49,323.55 506.85,330.64 C507.18,337.26 507.64,338.98 509.77,341.50 C511.16,343.15 512.92,345.96 513.66,347.75 C515.71,352.63 517.69,351.89 518.51,345.93 C520.09,334.45 530.30,320.40 540.28,316.00 C549.81,311.79 562.23,312.85 568.71,318.43 C571.37,320.72 571.50,321.24 571.50,329.72 C571.50,342.79 568.00,349.38 551.96,366.50 C534.56,385.09 530.50,391.88 532.36,399.28 C533.00,401.86 540.59,411.00 542.08,411.00 C542.59,411.00 543.00,410.16 543.00,409.13 C543.00,408.11 544.62,404.02 546.61,400.06 C550.40,392.49 557.02,385.10 571.01,372.86 C583.79,361.68 587.46,351.00 583.53,336.46 C581.49,328.95 570.61,310.05 565.64,305.38 C558.01,298.22 541.96,295.80 530.54,300.07 C524.03,302.51 515.90,308.65 512.74,313.51 L 510.50 316.96 L 503.00 309.13 C493.61,299.33 489.21,297.54 476.14,298.21 C465.93,298.73 459.49,301.51 453.74,307.86 C448.77,313.37 447.26,316.62 445.99,324.53 C443.95,337.33 446.95,349.12 457.25,368.69 C463.46,380.52 469.50,386.83 495.08,408.20 C517.30,426.79 520.63,430.33 521.54,436.44 C522.75,444.50 519.81,456.42 515.26,461.86 L 512.45 465.22 L 505.08 463.02 C501.02,461.81 495.47,459.29 492.74,457.41 C484.95,452.06 480.41,453.06 470.00,462.39 C456.63,474.39 421.51,498.52 405.50,506.69 C399.45,509.79 392.79,513.39 390.69,514.71 C388.60,516.02 382.98,518.48 378.19,520.16 C368.97,523.41 361.86,526.76 356.05,530.57 C346.63,536.75 313.54,549.00 298.17,552.00 C293.04,553.00 288.62,554.05 288.33,554.33 C288.05,554.62 289.47,557.81 291.49,561.42 L 295.17 568.00 L 363.10 568.00 L 431.03 568.00 L 443.77 572.60 C478.30,585.09 499.44,597.67 520.01,618.00 C534.32,632.14 544.04,644.68 555.81,664.19 C562.67,675.55 571.07,693.24 574.95,704.50 C576.65,709.45 578.25,714.06 578.49,714.75 C579.02,716.23 581.63,716.41 582.48,715.03 ZM 561.50 589.08 C558.20,588.10 551.22,585.62 546.00,583.57 C540.78,581.52 529.76,577.37 521.52,574.36 C513.29,571.34 506.35,568.68 506.11,568.44 C505.86,568.20 524.18,568.00 546.81,568.00 L 587.95 568.00 L 584.65 575.25 C582.83,579.24 580.13,584.41 578.66,586.75 C576.17,590.69 575.66,590.99 571.74,590.93 C569.41,590.89 564.80,590.06 561.50,589.08 ZM 517.17 465.25 C517.36,464.84 518.81,462.03 520.39,459.02 C521.97,456.00 523.82,450.38 524.48,446.52 L 525.70 439.50 L 526.84 443.50 C527.47,445.70 527.99,450.48 527.99,454.12 C528.00,462.47 525.73,466.00 520.34,466.00 C518.41,466.00 516.99,465.66 517.17,465.25 ZM 493.50 402.60 C475.36,387.00 464.13,376.33 466.69,377.13 C469.23,377.92 513.00,416.63 513.00,418.08 C513.00,418.59 512.89,418.99 512.75,418.97 C512.61,418.95 503.95,411.59 493.50,402.60 ZM 538.77 403.24 C531.92,395.38 534.06,390.23 551.91,371.64 C568.88,353.97 574.76,344.08 575.27,332.42 C575.39,329.44 575.79,327.00 576.14,327.00 C577.24,327.00 579.87,334.56 581.11,341.30 C582.46,348.63 581.37,355.03 577.79,360.84 C576.65,362.68 570.59,368.80 564.31,374.44 C552.19,385.33 546.11,392.52 542.50,400.24 C540.45,404.63 540.18,404.85 538.77,403.24 ZM 452.32 350.50 C447.51,338.30 447.40,325.02 452.04,315.93 C454.78,310.56 462.43,304.25 468.33,302.50 C480.78,298.80 492.20,301.73 499.76,310.58 C502.04,313.25 503.81,315.52 503.69,315.64 C503.57,315.76 501.01,315.00 497.99,313.96 C494.52,312.76 489.74,312.06 485.00,312.05 C466.01,312.03 455.06,324.97 453.75,349.00 L 453.50 353.50 L 452.32 350.50 ZM 512.53 338.45 C508.31,327.40 510.26,319.83 519.60,310.99 C527.53,303.49 532.52,301.51 543.50,301.51 C551.55,301.50 553.05,301.80 557.70,304.38 C560.56,305.97 563.93,308.39 565.20,309.76 L 567.50 312.27 L 563.50 311.38 C561.30,310.90 556.11,310.50 551.98,310.50 C545.50,310.50 543.53,310.96 537.79,313.78 C533.48,315.90 529.47,318.90 526.42,322.28 C521.73,327.47 516.00,337.91 516.00,341.25 C516.00,344.44 514.30,343.06 512.53,338.45 Z" fill="none"/>
</g>
</svg>